<svg width="480" height="332" viewBox="0 0 480 332" fill="none" xmlns="http://www.w3.org/2000/svg">
<g filter="url(#filter0_di_1612_2757)">
<path d="M99.0293 13.5909C99.0293 11.1549 101.004 9.18018 103.44 9.18018L151.3 9.18018C152.274 9.18018 153.064 9.97007 153.064 10.9445L153.064 23.2945H99.0293L99.0293 13.5909Z" fill="#6549A9"/>
</g>
<g filter="url(#filter1_di_1612_2757)">
<path d="M379.198 13.5909C379.198 11.1549 377.223 9.18018 374.788 9.18018L326.316 9.18018C325.341 9.18018 324.552 9.97007 324.552 10.9445L324.552 23.2945H379.198L379.198 13.5909Z" fill="#6549A9"/>
</g>
<g filter="url(#filter2_i_1612_2757)">
<path d="M326.285 248.02C332.276 263.535 351.855 295.785 376.6 313.255C401.345 330.726 426.08 335.491 445.364 326.504C464.647 317.517 476.9 295.513 479.425 265.333C481.951 235.154 474.543 199.27 458.831 165.577L392.642 19.3032L239.018 19.3032L238.621 19.3803L88.5402 19.3803L22.2919 165.654C6.56631 199.347 -0.856174 235.231 1.65709 265.411C4.17035 295.59 16.4137 317.594 35.6935 326.581C54.9733 335.568 79.7104 330.803 104.463 313.333C129.215 295.862 148.581 265.017 164.307 231.323L170.689 214.794C170.689 214.794 182.348 219.649 190.105 221.88C208.564 227.19 219.768 227.524 238.976 227.439C257.812 227.356 268.331 225.043 286.864 221.674C297.586 219.725 314.13 215.734 314.13 215.734C314.13 215.734 320.293 232.506 326.285 248.02Z" fill="#FBFBFB"/>
</g>
<g filter="url(#filter3_i_1612_2757)">
<path d="M203.458 150.113C203.455 166.322 190.16 179.461 173.764 179.461C157.367 179.461 144.078 166.322 144.081 150.113C144.084 133.905 157.379 120.765 173.776 120.765C190.172 120.765 203.461 133.905 203.458 150.113Z" fill="#121212"/>
</g>
<path d="M171.645 140.102C171.644 144.733 167.965 148.487 163.429 148.487C158.892 148.487 155.215 144.733 155.216 140.102C155.217 135.471 158.895 131.717 163.432 131.717C167.969 131.717 171.646 135.471 171.645 140.102Z" fill="white"/>
<g filter="url(#filter4_i_1612_2757)">
<path d="M336.984 150.113C336.981 166.322 323.661 179.461 307.234 179.461C290.808 179.461 277.494 166.322 277.497 150.113C277.5 133.905 290.82 120.765 307.246 120.765C323.673 120.765 336.987 133.905 336.984 150.113Z" fill="#121212"/>
</g>
<path d="M308.219 143.588C308.218 148.219 304.539 151.973 300.003 151.973C295.466 151.973 291.789 148.219 291.79 143.588C291.791 138.957 295.47 135.203 300.006 135.203C304.543 135.203 308.22 138.957 308.219 143.588Z" fill="white"/>
<path d="M212.582 187.333C215.811 196.704 226.339 200.511 236.954 200.909C248.289 201.335 260.58 196.818 263.055 187.455" stroke="url(#paint0_linear_1612_2757)" stroke-width="3.52857" stroke-linecap="round"/>
<g filter="url(#filter5_i_1612_2757)">
<path d="M212.911 79.1881C212.911 80.7318 206.416 81.9832 198.404 81.9832C190.393 81.9832 183.899 80.7318 183.899 79.1881C183.899 77.6445 190.394 76.3931 198.405 76.3931C206.417 76.3931 212.911 77.6445 212.911 79.1881Z" fill="black"/>
<path d="M212.911 79.1881C212.911 80.7318 206.416 81.9832 198.404 81.9832C190.393 81.9832 183.899 80.7318 183.899 79.1881C183.899 77.6445 190.394 76.3931 198.405 76.3931C206.417 76.3931 212.911 77.6445 212.911 79.1881Z" fill="black"/>
</g>
<g filter="url(#filter6_i_1612_2757)">
<path d="M291.907 79.1881C291.907 80.7318 285.412 81.9832 277.4 81.9832C269.389 81.9832 262.895 80.7318 262.895 79.1881C262.895 77.6445 269.39 76.3931 277.402 76.3931C285.413 76.3931 291.907 77.6445 291.907 79.1881Z" fill="black"/>
<path d="M291.907 79.1881C291.907 80.7318 285.412 81.9832 277.4 81.9832C269.389 81.9832 262.895 80.7318 262.895 79.1881C262.895 77.6445 269.39 76.3931 277.402 76.3931C285.413 76.3931 291.907 77.6445 291.907 79.1881Z" fill="black"/>
</g>
<g filter="url(#filter7_i_1612_2757)">
<path d="M140.028 53.0103C141.062 51.9767 142.737 51.9767 143.771 53.0102L150.639 59.8788C151.673 60.9123 151.673 62.588 150.639 63.6214L138.193 76.0681C137.692 76.5686 137.012 76.8477 136.305 76.8432L129.48 76.7997C128.031 76.7905 126.859 75.6186 126.85 74.1702L126.807 67.3451C126.802 66.6374 127.081 65.9574 127.582 65.4569L140.028 53.0103Z" fill="#6549A9"/>
</g>
<g filter="url(#filter8_i_1612_2757)">
<path d="M150.639 93.7329C151.673 94.7664 151.673 96.4421 150.639 97.4756L143.771 104.344C142.737 105.378 141.062 105.378 140.028 104.344L127.582 91.8977C127.081 91.3973 126.802 90.7172 126.806 90.0095L126.85 83.1844C126.859 81.736 128.031 80.5641 129.479 80.5549L136.305 80.5114C137.012 80.5069 137.692 80.786 138.193 81.2865L150.639 93.7329Z" fill="#6549A9"/>
</g>
<g filter="url(#filter9_i_1612_2757)">
<path d="M109.917 104.344C108.884 105.378 107.208 105.378 106.175 104.344L99.306 97.4759C98.2725 96.4424 98.2725 94.7668 99.3059 93.7333L111.752 81.2866C112.253 80.7862 112.933 80.507 113.641 80.5115L120.466 80.555C121.914 80.5643 123.086 81.7361 123.095 83.1845L123.139 90.0097C123.143 90.7174 122.864 91.3974 122.364 91.8978L109.917 104.344Z" fill="#6549A9"/>
</g>
<g filter="url(#filter10_i_1612_2757)">
<path d="M99.3059 63.6216C98.2724 62.5881 98.2724 60.9124 99.3059 59.8789L106.175 53.0103C107.208 51.9768 108.884 51.9768 109.917 53.0103L122.364 65.4568C122.864 65.9572 123.143 66.6373 123.139 67.345L123.095 74.1701C123.086 75.6185 121.914 76.7903 120.466 76.7996L113.641 76.8431C112.933 76.8476 112.253 76.5685 111.753 76.068L99.3059 63.6216Z" fill="#6549A9"/>
</g>
<g filter="url(#filter11_i_1612_2757)">
<circle cx="357.168" cy="63.8731" r="10.5857" fill="#6549A9"/>
</g>
<g filter="url(#filter12_i_1612_2757)">
<circle cx="357.168" cy="100.923" r="10.5857" fill="#6549A9"/>
</g>
<g filter="url(#filter13_i_1612_2757)">
<circle cx="375.693" cy="82.398" r="10.5857" fill="#6549A9"/>
</g>
<g filter="url(#filter14_i_1612_2757)">
<circle cx="338.643" cy="82.398" r="10.5857" fill="#6549A9"/>
</g>
<defs>
<filter id="filter0_di_1612_2757" x="72.565" y="0.358751" width="106.964" height="67.0428" filterUnits="userSpaceOnUse" color-interpolation-filters="sRGB">
<feFlood flood-opacity="0" result="BackgroundImageFix"/>
<feColorMatrix in="SourceAlpha" type="matrix" values="0 0 0 0 0 0 0 0 0 0 0 0 0 0 0 0 0 0 127 0" result="hardAlpha"/>
<feOffset dy="17.6428"/>
<feGaussianBlur stdDeviation="13.2321"/>
<feComposite in2="hardAlpha" operator="out"/>
<feColorMatrix type="matrix" values="0 0 0 0 0.741176 0 0 0 0 0.717647 0 0 0 0 0.788235 0 0 0 1 0"/>
<feBlend mode="normal" in2="BackgroundImageFix" result="effect1_dropShadow_1612_2757"/>
<feBlend mode="normal" in="SourceGraphic" in2="effect1_dropShadow_1612_2757" result="shape"/>
<feColorMatrix in="SourceAlpha" type="matrix" values="0 0 0 0 0 0 0 0 0 0 0 0 0 0 0 0 0 0 127 0" result="hardAlpha"/>
<feOffset dx="3.52857" dy="3.52857"/>
<feGaussianBlur stdDeviation="1.76428"/>
<feComposite in2="hardAlpha" operator="arithmetic" k2="-1" k3="1"/>
<feColorMatrix type="matrix" values="0 0 0 0 1 0 0 0 0 1 0 0 0 0 1 0 0 0 0.25 0"/>
<feBlend mode="normal" in2="shape" result="effect2_innerShadow_1612_2757"/>
</filter>
<filter id="filter1_di_1612_2757" x="298.087" y="0.358751" width="107.575" height="67.0428" filterUnits="userSpaceOnUse" color-interpolation-filters="sRGB">
<feFlood flood-opacity="0" result="BackgroundImageFix"/>
<feColorMatrix in="SourceAlpha" type="matrix" values="0 0 0 0 0 0 0 0 0 0 0 0 0 0 0 0 0 0 127 0" result="hardAlpha"/>
<feOffset dy="17.6428"/>
<feGaussianBlur stdDeviation="13.2321"/>
<feComposite in2="hardAlpha" operator="out"/>
<feColorMatrix type="matrix" values="0 0 0 0 0.741176 0 0 0 0 0.717647 0 0 0 0 0.788235 0 0 0 1 0"/>
<feBlend mode="normal" in2="BackgroundImageFix" result="effect1_dropShadow_1612_2757"/>
<feBlend mode="normal" in="SourceGraphic" in2="effect1_dropShadow_1612_2757" result="shape"/>
<feColorMatrix in="SourceAlpha" type="matrix" values="0 0 0 0 0 0 0 0 0 0 0 0 0 0 0 0 0 0 127 0" result="hardAlpha"/>
<feOffset dx="3.52857" dy="3.52857"/>
<feGaussianBlur stdDeviation="1.76428"/>
<feComposite in2="hardAlpha" operator="arithmetic" k2="-1" k3="1"/>
<feColorMatrix type="matrix" values="0 0 0 0 1 0 0 0 0 1 0 0 0 0 1 0 0 0 0.25 0"/>
<feBlend mode="normal" in2="shape" result="effect2_innerShadow_1612_2757"/>
</filter>
<filter id="filter2_i_1612_2757" x="-29.6982" y="6.95323" width="509.608" height="324.07" filterUnits="userSpaceOnUse" color-interpolation-filters="sRGB">
<feFlood flood-opacity="0" result="BackgroundImageFix"/>
<feBlend mode="normal" in="SourceGraphic" in2="BackgroundImageFix" result="shape"/>
<feColorMatrix in="SourceAlpha" type="matrix" values="0 0 0 0 0 0 0 0 0 0 0 0 0 0 0 0 0 0 127 0" result="hardAlpha"/>
<feOffset dx="-30.875" dy="-12.35"/>
<feGaussianBlur stdDeviation="19.4071"/>
<feComposite in2="hardAlpha" operator="arithmetic" k2="-1" k3="1"/>
<feColorMatrix type="matrix" values="0 0 0 0 0.876892 0 0 0 0 0.865469 0 0 0 0 0.909531 0 0 0 1 0"/>
<feBlend mode="normal" in2="shape" result="effect1_innerShadow_1612_2757"/>
</filter>
<filter id="filter3_i_1612_2757" x="144.081" y="120.765" width="62.9055" height="62.2251" filterUnits="userSpaceOnUse" color-interpolation-filters="sRGB">
<feFlood flood-opacity="0" result="BackgroundImageFix"/>
<feBlend mode="normal" in="SourceGraphic" in2="BackgroundImageFix" result="shape"/>
<feColorMatrix in="SourceAlpha" type="matrix" values="0 0 0 0 0 0 0 0 0 0 0 0 0 0 0 0 0 0 127 0" result="hardAlpha"/>
<feOffset dx="3.52857" dy="3.52857"/>
<feGaussianBlur stdDeviation="1.76428"/>
<feComposite in2="hardAlpha" operator="arithmetic" k2="-1" k3="1"/>
<feColorMatrix type="matrix" values="0 0 0 0 1 0 0 0 0 1 0 0 0 0 1 0 0 0 0.25 0"/>
<feBlend mode="normal" in2="shape" result="effect1_innerShadow_1612_2757"/>
</filter>
<filter id="filter4_i_1612_2757" x="277.497" y="120.765" width="63.0149" height="62.2251" filterUnits="userSpaceOnUse" color-interpolation-filters="sRGB">
<feFlood flood-opacity="0" result="BackgroundImageFix"/>
<feBlend mode="normal" in="SourceGraphic" in2="BackgroundImageFix" result="shape"/>
<feColorMatrix in="SourceAlpha" type="matrix" values="0 0 0 0 0 0 0 0 0 0 0 0 0 0 0 0 0 0 127 0" result="hardAlpha"/>
<feOffset dx="3.52857" dy="3.52857"/>
<feGaussianBlur stdDeviation="1.76428"/>
<feComposite in2="hardAlpha" operator="arithmetic" k2="-1" k3="1"/>
<feColorMatrix type="matrix" values="0 0 0 0 1 0 0 0 0 1 0 0 0 0 1 0 0 0 0.25 0"/>
<feBlend mode="normal" in2="shape" result="effect1_innerShadow_1612_2757"/>
</filter>
<filter id="filter5_i_1612_2757" x="183.898" y="76.3931" width="32.5413" height="8.23652" filterUnits="userSpaceOnUse" color-interpolation-filters="sRGB">
<feFlood flood-opacity="0" result="BackgroundImageFix"/>
<feBlend mode="normal" in="SourceGraphic" in2="BackgroundImageFix" result="shape"/>
<feColorMatrix in="SourceAlpha" type="matrix" values="0 0 0 0 0 0 0 0 0 0 0 0 0 0 0 0 0 0 127 0" result="hardAlpha"/>
<feOffset dx="5.29285" dy="2.64643"/>
<feGaussianBlur stdDeviation="1.76428"/>
<feComposite in2="hardAlpha" operator="arithmetic" k2="-1" k3="1"/>
<feColorMatrix type="matrix" values="0 0 0 0 1 0 0 0 0 1 0 0 0 0 1 0 0 0 0.25 0"/>
<feBlend mode="normal" in2="shape" result="effect1_innerShadow_1612_2757"/>
</filter>
<filter id="filter6_i_1612_2757" x="262.895" y="76.3931" width="32.5413" height="8.23652" filterUnits="userSpaceOnUse" color-interpolation-filters="sRGB">
<feFlood flood-opacity="0" result="BackgroundImageFix"/>
<feBlend mode="normal" in="SourceGraphic" in2="BackgroundImageFix" result="shape"/>
<feColorMatrix in="SourceAlpha" type="matrix" values="0 0 0 0 0 0 0 0 0 0 0 0 0 0 0 0 0 0 127 0" result="hardAlpha"/>
<feOffset dx="5.29285" dy="2.64643"/>
<feGaussianBlur stdDeviation="1.76428"/>
<feComposite in2="hardAlpha" operator="arithmetic" k2="-1" k3="1"/>
<feColorMatrix type="matrix" values="0 0 0 0 1 0 0 0 0 1 0 0 0 0 1 0 0 0 0.25 0"/>
<feBlend mode="normal" in2="shape" result="effect1_innerShadow_1612_2757"/>
</filter>
<filter id="filter7_i_1612_2757" x="126.807" y="52.2351" width="26.3717" height="25.4903" filterUnits="userSpaceOnUse" color-interpolation-filters="sRGB">
<feFlood flood-opacity="0" result="BackgroundImageFix"/>
<feBlend mode="normal" in="SourceGraphic" in2="BackgroundImageFix" result="shape"/>
<feColorMatrix in="SourceAlpha" type="matrix" values="0 0 0 0 0 0 0 0 0 0 0 0 0 0 0 0 0 0 127 0" result="hardAlpha"/>
<feOffset dx="1.76428" dy="0.882142"/>
<feGaussianBlur stdDeviation="1.32321"/>
<feComposite in2="hardAlpha" operator="arithmetic" k2="-1" k3="1"/>
<feColorMatrix type="matrix" values="0 0 0 0 1 0 0 0 0 1 0 0 0 0 1 0 0 0 0.25 0"/>
<feBlend mode="normal" in2="shape" result="effect1_innerShadow_1612_2757"/>
</filter>
<filter id="filter8_i_1612_2757" x="126.807" y="80.5115" width="26.3717" height="25.4901" filterUnits="userSpaceOnUse" color-interpolation-filters="sRGB">
<feFlood flood-opacity="0" result="BackgroundImageFix"/>
<feBlend mode="normal" in="SourceGraphic" in2="BackgroundImageFix" result="shape"/>
<feColorMatrix in="SourceAlpha" type="matrix" values="0 0 0 0 0 0 0 0 0 0 0 0 0 0 0 0 0 0 127 0" result="hardAlpha"/>
<feOffset dx="1.76428" dy="0.882142"/>
<feGaussianBlur stdDeviation="1.32321"/>
<feComposite in2="hardAlpha" operator="arithmetic" k2="-1" k3="1"/>
<feColorMatrix type="matrix" values="0 0 0 0 1 0 0 0 0 1 0 0 0 0 1 0 0 0 0.25 0"/>
<feBlend mode="normal" in2="shape" result="effect1_innerShadow_1612_2757"/>
</filter>
<filter id="filter9_i_1612_2757" x="98.5312" y="80.5115" width="26.3717" height="25.4903" filterUnits="userSpaceOnUse" color-interpolation-filters="sRGB">
<feFlood flood-opacity="0" result="BackgroundImageFix"/>
<feBlend mode="normal" in="SourceGraphic" in2="BackgroundImageFix" result="shape"/>
<feColorMatrix in="SourceAlpha" type="matrix" values="0 0 0 0 0 0 0 0 0 0 0 0 0 0 0 0 0 0 127 0" result="hardAlpha"/>
<feOffset dx="1.76428" dy="0.882142"/>
<feGaussianBlur stdDeviation="1.32321"/>
<feComposite in2="hardAlpha" operator="arithmetic" k2="-1" k3="1"/>
<feColorMatrix type="matrix" values="0 0 0 0 1 0 0 0 0 1 0 0 0 0 1 0 0 0 0.25 0"/>
<feBlend mode="normal" in2="shape" result="effect1_innerShadow_1612_2757"/>
</filter>
<filter id="filter10_i_1612_2757" x="98.5312" y="52.2351" width="26.3717" height="25.4901" filterUnits="userSpaceOnUse" color-interpolation-filters="sRGB">
<feFlood flood-opacity="0" result="BackgroundImageFix"/>
<feBlend mode="normal" in="SourceGraphic" in2="BackgroundImageFix" result="shape"/>
<feColorMatrix in="SourceAlpha" type="matrix" values="0 0 0 0 0 0 0 0 0 0 0 0 0 0 0 0 0 0 127 0" result="hardAlpha"/>
<feOffset dx="1.76428" dy="0.882142"/>
<feGaussianBlur stdDeviation="1.32321"/>
<feComposite in2="hardAlpha" operator="arithmetic" k2="-1" k3="1"/>
<feColorMatrix type="matrix" values="0 0 0 0 1 0 0 0 0 1 0 0 0 0 1 0 0 0 0.25 0"/>
<feBlend mode="normal" in2="shape" result="effect1_innerShadow_1612_2757"/>
</filter>
<filter id="filter11_i_1612_2757" x="346.582" y="53.2874" width="24.7004" height="22.0535" filterUnits="userSpaceOnUse" color-interpolation-filters="sRGB">
<feFlood flood-opacity="0" result="BackgroundImageFix"/>
<feBlend mode="normal" in="SourceGraphic" in2="BackgroundImageFix" result="shape"/>
<feColorMatrix in="SourceAlpha" type="matrix" values="0 0 0 0 0 0 0 0 0 0 0 0 0 0 0 0 0 0 127 0" result="hardAlpha"/>
<feOffset dx="3.52857" dy="0.882142"/>
<feGaussianBlur stdDeviation="1.76428"/>
<feComposite in2="hardAlpha" operator="arithmetic" k2="-1" k3="1"/>
<feColorMatrix type="matrix" values="0 0 0 0 1 0 0 0 0 1 0 0 0 0 1 0 0 0 0.25 0"/>
<feBlend mode="normal" in2="shape" result="effect1_innerShadow_1612_2757"/>
</filter>
<filter id="filter12_i_1612_2757" x="346.582" y="90.3372" width="24.7004" height="22.0535" filterUnits="userSpaceOnUse" color-interpolation-filters="sRGB">
<feFlood flood-opacity="0" result="BackgroundImageFix"/>
<feBlend mode="normal" in="SourceGraphic" in2="BackgroundImageFix" result="shape"/>
<feColorMatrix in="SourceAlpha" type="matrix" values="0 0 0 0 0 0 0 0 0 0 0 0 0 0 0 0 0 0 127 0" result="hardAlpha"/>
<feOffset dx="3.52857" dy="0.882142"/>
<feGaussianBlur stdDeviation="1.76428"/>
<feComposite in2="hardAlpha" operator="arithmetic" k2="-1" k3="1"/>
<feColorMatrix type="matrix" values="0 0 0 0 1 0 0 0 0 1 0 0 0 0 1 0 0 0 0.25 0"/>
<feBlend mode="normal" in2="shape" result="effect1_innerShadow_1612_2757"/>
</filter>
<filter id="filter13_i_1612_2757" x="365.107" y="71.8123" width="24.7004" height="22.0535" filterUnits="userSpaceOnUse" color-interpolation-filters="sRGB">
<feFlood flood-opacity="0" result="BackgroundImageFix"/>
<feBlend mode="normal" in="SourceGraphic" in2="BackgroundImageFix" result="shape"/>
<feColorMatrix in="SourceAlpha" type="matrix" values="0 0 0 0 0 0 0 0 0 0 0 0 0 0 0 0 0 0 127 0" result="hardAlpha"/>
<feOffset dx="3.52857" dy="0.882142"/>
<feGaussianBlur stdDeviation="1.76428"/>
<feComposite in2="hardAlpha" operator="arithmetic" k2="-1" k3="1"/>
<feColorMatrix type="matrix" values="0 0 0 0 1 0 0 0 0 1 0 0 0 0 1 0 0 0 0.25 0"/>
<feBlend mode="normal" in2="shape" result="effect1_innerShadow_1612_2757"/>
</filter>
<filter id="filter14_i_1612_2757" x="328.058" y="71.8123" width="24.7004" height="22.0535" filterUnits="userSpaceOnUse" color-interpolation-filters="sRGB">
<feFlood flood-opacity="0" result="BackgroundImageFix"/>
<feBlend mode="normal" in="SourceGraphic" in2="BackgroundImageFix" result="shape"/>
<feColorMatrix in="SourceAlpha" type="matrix" values="0 0 0 0 0 0 0 0 0 0 0 0 0 0 0 0 0 0 127 0" result="hardAlpha"/>
<feOffset dx="3.52857" dy="0.882142"/>
<feGaussianBlur stdDeviation="1.76428"/>
<feComposite in2="hardAlpha" operator="arithmetic" k2="-1" k3="1"/>
<feColorMatrix type="matrix" values="0 0 0 0 1 0 0 0 0 1 0 0 0 0 1 0 0 0 0.25 0"/>
<feBlend mode="normal" in2="shape" result="effect1_innerShadow_1612_2757"/>
</filter>
<linearGradient id="paint0_linear_1612_2757" x1="237.76" y1="201.06" x2="212.433" y2="185.576" gradientUnits="userSpaceOnUse">
<stop/>
<stop offset="1" stop-color="#0A0A0A" stop-opacity="0.75"/>
</linearGradient>
</defs>
</svg>
